<?xml version="1.0" encoding="UTF-8" standalone="no"?>
<svg
   version="1.1"
   id="svg866"
   sodipodi:docname="blue1.svg"
   width="47"
   height="47"
   inkscape:version="1.1.2 (b8e25be833, 2022-02-05)"
   xmlns:inkscape="http://www.inkscape.org/namespaces/inkscape"
   xmlns:sodipodi="http://sodipodi.sourceforge.net/DTD/sodipodi-0.dtd"
   xmlns="http://www.w3.org/2000/svg"
   xmlns:svg="http://www.w3.org/2000/svg">
  <sodipodi:namedview
     id="namedview868"
     pagecolor="#ffffff"
     bordercolor="#666666"
     borderopacity="1.0"
     inkscape:pageshadow="2"
     inkscape:pageopacity="0.0"
     inkscape:pagecheckerboard="0"
     showgrid="false"
     fit-margin-top="0"
     fit-margin-left="0"
     fit-margin-right="0"
     fit-margin-bottom="0"
     inkscape:zoom="4.1733333"
     inkscape:cx="-8.7460064"
     inkscape:cy="-18.330671"
     inkscape:window-width="1920"
     inkscape:window-height="1001"
     inkscape:window-x="-9"
     inkscape:window-y="-9"
     inkscape:window-maximized="1"
     inkscape:current-layer="svg866" />
  <defs
     id="defs2" />
  <path
     stroke="none"
     fill="#8db5e7"
     d="m 14.6,21.9 q 0,1 0.65,1.65 0.75,0.7 1.7,0.7 1,0 1.65,-0.7 0.75,-0.65 0.75,-1.65 0,-0.95 -0.75,-1.65 -0.65,-0.7 -1.65,-0.7 -0.95,0 -1.7,0.7 -0.65,0.7 -0.65,1.65 M 6,23.45 Q 6,16.2 11.15,11.1 16.25,6 23.5,6 q 7.25,0 12.4,5.1 5.1,5.1 5.1,12.35 0,7 -4.65,12 L 35.9,35.9 Q 30.75,41 23.5,41 16.25,41 11.15,35.9 L 10.7,35.4 Q 6,30.45 6,23.45 m 23.3,-3.2 q -0.65,0.7 -0.65,1.65 0,1 0.65,1.65 0.7,0.7 1.75,0.7 0.9,0 1.6,-0.7 0.7,-0.65 0.7,-1.65 0,-0.95 -0.7,-1.65 -0.7,-0.7 -1.6,-0.7 -1.05,0 -1.75,0.7 M 21.65,17.9 q 0,1 0.65,1.65 0.7,0.7 1.75,0.7 0.9,0 1.6,-0.7 0.7,-0.65 0.7,-1.65 0,-0.95 -0.7,-1.65 -0.7,-0.7 -1.6,-0.7 -1.05,0 -1.75,0.7 -0.65,0.7 -0.65,1.65 m 6.2,13.15 -0.3,-0.7 q -0.3,-0.3 -0.7,-0.3 H 21 q -0.4,0 -0.7,0.3 -0.3,0.3 -0.3,0.7 0,0.4 0.3,0.7 l 0.7,0.3 h 5.85 q 0.4,0 0.7,-0.3 l 0.3,-0.7"
     id="path502" />
  <path
     stroke="none"
     fill="#a9d0ff"
     d="M 9.05,9 Q 15,3 23.5,3 32,3 38,9 h 0.05 Q 44,14.95 44,23.45 44,31.65 38.55,37.5 L 38.25,37.8 38,38.05 Q 32,44 23.5,44 15,44 9.05,38.05 L 8.45,37.4 Q 3,31.6 3,23.45 3,14.95 9.05,9 M 6,23.45 q 0,7 4.7,11.95 l 0.45,0.5 q 5.1,5.1 12.35,5.1 7.25,0 12.4,-5.1 l 0.45,-0.45 Q 41,30.45 41,23.45 41,16.2 35.9,11.1 30.75,6 23.5,6 16.25,6 11.15,11.1 6,16.2 6,23.45"
     id="path504" />
  <path
     stroke="none"
     fill="#7494be"
     d="M 9.05,9 Q 3,14.95 3,23.45 3,31.6 8.45,37.4 l 0.6,0.65 Q 15,44 23.5,44 32,44 38,38.05 l 0.25,-0.25 0.3,-0.3 Q 44,31.65 44,23.45 44,14.95 38.05,9 H 38 Q 32,3 23.5,3 15,3 9.05,9 M 6.6,7.25 6.9,6.85 Q 13.75,0 23.5,0 33.05,0 39.9,6.6 l 0.25,0.25 Q 47,13.7 47,23.45 q 0,9.4 -6.25,16.1 l -0.05,0.05 -0.3,0.3 -0.05,0.05 0.05,-0.1 -0.25,0.25 -0.1,0.1 0.1,-0.05 Q 33.2,47 23.5,47 13.75,47 6.9,40.15 L 6.25,39.45 Q 0,32.8 0,23.45 0,13.95 6.6,7.25"
     id="path506" />
  <path
     stroke="none"
     fill="#4f719d"
     d="m 14.6,21.9 q 0,-0.95 0.65,-1.65 0.75,-0.7 1.7,-0.7 1,0 1.65,0.7 0.75,0.7 0.75,1.65 0,1 -0.75,1.65 -0.65,0.7 -1.65,0.7 -0.95,0 -1.7,-0.7 Q 14.6,22.9 14.6,21.9 m 7.05,-4 q 0,-0.95 0.65,-1.65 0.7,-0.7 1.75,-0.7 0.9,0 1.6,0.7 0.7,0.7 0.7,1.65 0,1 -0.7,1.65 -0.7,0.7 -1.6,0.7 -1.05,0 -1.75,-0.7 -0.65,-0.65 -0.65,-1.65 m 7.65,2.35 q 0.7,-0.7 1.75,-0.7 0.9,0 1.6,0.7 0.7,0.7 0.7,1.65 0,1 -0.7,1.65 -0.7,0.7 -1.6,0.7 -1.05,0 -1.75,-0.7 -0.65,-0.65 -0.65,-1.65 0,-0.95 0.65,-1.65 m -1.45,10.8 -0.3,0.7 q -0.3,0.3 -0.7,0.3 H 21 l -0.7,-0.3 q -0.3,-0.3 -0.3,-0.7 0,-0.4 0.3,-0.7 0.3,-0.3 0.7,-0.3 h 5.85 q 0.4,0 0.7,0.3 l 0.3,0.7"
     id="path508" />
</svg>
