<?xml version="1.0" encoding="UTF-8" standalone="no"?>
<svg
   version="1.1"
   id="Layer_1"
   x="0px"
   y="0px"
   viewBox="0 0 47.000001 47.000001"
   xml:space="preserve"
   sodipodi:docname="earth-icon.svg"
   width="47"
   height="47"
   inkscape:version="1.1.2 (b8e25be833, 2022-02-05)"
   xmlns:inkscape="http://www.inkscape.org/namespaces/inkscape"
   xmlns:sodipodi="http://sodipodi.sourceforge.net/DTD/sodipodi-0.dtd"
   xmlns="http://www.w3.org/2000/svg"
   xmlns:svg="http://www.w3.org/2000/svg"><defs
     id="defs13" /><sodipodi:namedview
     id="namedview11"
     pagecolor="#ffffff"
     bordercolor="#666666"
     borderopacity="1.0"
     inkscape:pageshadow="2"
     inkscape:pageopacity="0.0"
     inkscape:pagecheckerboard="0"
     showgrid="false"
     inkscape:zoom="6.575521"
     inkscape:cx="23.496237"
     inkscape:cy="11.329901"
     inkscape:window-width="1920"
     inkscape:window-height="1001"
     inkscape:window-x="-9"
     inkscape:window-y="-9"
     inkscape:window-maximized="1"
     inkscape:current-layer="Layer_1" /><style
     type="text/css"
     id="style2"><![CDATA[
	.st0{fill-rule:evenodd;clip-rule:evenodd;fill:#A1E367;}
	.st1{fill-rule:evenodd;clip-rule:evenodd;fill:#2394E0;}
]]></style><g
     id="g8"
     transform="scale(0.38248698)"><path
       class="st1"
       d="m 61.44,0 c 33.93,0 61.44,27.51 61.44,61.44 0,33.93 -27.51,61.44 -61.44,61.44 C 27.51,122.88 0,95.37 0,61.44 0,27.51 27.51,0 61.44,0 Z"
       id="path4" /><path
       class="st0"
       d="M 11.76,93.18 C 8.14,87.69 5.43,81.54 3.84,74.95 l 10.82,5.22 0.06,3.23 c 0,1.19 -2.02,3.71 -2.67,4.67 z M 78.31,6.5 c 20.62,6.85 36.09,25 39.07,47.1 l -1.95,-0.21 c -0.35,1.5 -0.67,1.53 -0.67,3.33 0,1.59 2,2.65 2,6 0,0.9 -2.11,2.69 -2.2,3.01 l -3.13,-3.67 v 4.67 l -0.47,-0.02 -0.84,-8.62 -1.75,0.55 -2.08,-6.41 -6.85,7.16 -0.08,5.24 -2.24,1.5 -2.38,-13.44 -1.42,1.04 -3.22,-4.35 -4.81,0.14 -1.84,-2.11 -1.89,0.52 -3.71,-4.25 -0.72,0.49 2.3,5.88 h 2.67 v -1.33 h 1.33 c 0.96,2.66 2,1.08 2,2.67 0,5.55 -6.85,9.63 -11.34,10.67 0.24,1 0.15,2 1.33,2 2.51,0 1.26,-0.44 4,-0.67 -0.13,5.67 -6.5,12.44 -9.22,16.65 l 1.22,8.69 c 0.32,1.89 -3.92,3.88 -5.36,6.01 l 0.69,3.33 -1.95,0.79 c -0.34,3.42 -3.66,7.21 -7.39,7.21 h -4 c 0,-4.68 -3.34,-11.37 -3.34,-14.68 0,-2.81 1.33,-3.19 1.33,-6.67 0,-3.22 -3.33,-7.83 -3.33,-8.67 V 70.71 H 45.4 c -0.4,-1.49 -0.15,-2 -2,-2 h -0.67 c -2.91,0 -2.42,1.33 -5.34,1.33 h -2.67 c -2.41,0 -6.67,-7.72 -6.67,-8.67 v -8 c 0,-3.45 3.16,-7.21 5.34,-8.67 v -3.33 l 3,-3.05 1.67,-0.28 c 3.58,0 3.15,-2 5.34,-2 h 6 v 4.67 l 6.6,2.82 0.62,-2.85 c 2.99,0.7 3.77,2.03 7.45,2.03 h 1.33 c 2.53,0 2.67,-3.36 2.67,-6 l -5.34,0.53 -2.33,-5.06 -2.31,0.61 c 0.42,1.81 0.64,1.06 0.64,2.59 0,0.9 -0.74,1 -1.34,1.33 l -2.31,-5.86 -4.97,-3.55 -0.66,0.65 4.23,4.45 c -0.56,1.6 -0.63,6.21 -2.96,2.98 l 2.18,-1.05 -5.44,-5.7 -3.26,1.27 -3.22,3.08 c -0.34,2.48 -1.01,3.73 -3.61,3.73 -1.73,0 -0.69,-0.45 -3.34,-0.67 v -6.67 h 6 l -1.95,-4.44 -0.72,0.44 v -1.34 l 9.75,-4.49 c -0.18,-1.4 -0.41,-0.65 -0.41,-2.18 0,-0.09 0.65,-1.32 0.67,-1.34 l 2.52,1.57 -0.6,-2.87 -3.89,0.8 -0.72,-3.49 c 3.08,-1.62 9.87,-7.34 12.03,-7.34 h 2 c 2.11,0 7.75,2.08 8.67,3.33 L 62.03,7.48 66,10.75 66.38,9.35 69.34,8.54 69.38,6.69 h 1.34 v 2 z"
       id="path6" /></g></svg>
